<svg id="visual" viewBox="0 0 900 600" width="900" height="600" xmlns="http://www.w3.org/2000/svg" xmlns:xlink="http://www.w3.org/1999/xlink" version="1.1"><path d="M0 109L82 151L164 97L245 109L327 91L409 115L491 157L573 79L655 145L736 55L818 85L900 79L900 0L818 0L736 0L655 0L573 0L491 0L409 0L327 0L245 0L164 0L82 0L0 0Z" fill="#00cc8e"></path><path d="M0 391L82 277L164 289L245 193L327 199L409 367L491 331L573 271L655 289L736 301L818 283L900 343L900 77L818 83L736 53L655 143L573 77L491 155L409 113L327 89L245 107L164 95L82 149L0 107Z" fill="#00b98a"></path><path d="M0 499L82 481L164 445L245 385L327 511L409 463L491 457L573 451L655 421L736 463L818 517L900 463L900 341L818 281L736 299L655 287L573 269L491 329L409 365L327 197L245 191L164 287L82 275L0 389Z" fill="#00a784"></path><path d="M0 559L82 523L164 505L245 499L327 565L409 541L491 523L573 517L655 553L736 505L818 565L900 559L900 461L818 515L736 461L655 419L573 449L491 455L409 461L327 509L245 383L164 443L82 479L0 497Z" fill="#00957c"></path><path d="M0 601L82 601L164 601L245 601L327 601L409 601L491 601L573 601L655 601L736 601L818 601L900 601L900 557L818 563L736 503L655 551L573 515L491 521L409 539L327 563L245 497L164 503L82 521L0 557Z" fill="#038373"></path></svg>